<svg width="100" height="100" viewBox="0 0 100 100" fill="none" xmlns="http://www.w3.org/2000/svg">
<rect width="100" height="100" fill="#0057FF"/>
<path d="M28.576 42.32V44.552H24.136V59H21.4V44.552H16.936V42.32H28.576ZM34.0829 42.32V59H31.3469V42.32H34.0829ZM48.451 42.32V44.552H44.011V59H41.275V44.552H36.811V42.32H48.451ZM61.2779 55.592H54.2939L53.0939 59H50.2379L56.2139 42.296H59.3819L65.3579 59H62.4779L61.2779 55.592ZM60.5099 53.36L57.7979 45.608L55.0619 53.36H60.5099ZM81.6603 59H78.9243L70.6923 46.544V59H67.9563V42.296H70.6923L78.9243 54.728V42.296H81.6603V59Z" fill="white"/>
</svg>
