<svg width="100" height="100" viewBox="0 0 100 100" fill="none" xmlns="http://www.w3.org/2000/svg">
<rect width="100" height="100" fill="#0057FF"/>
<path d="M6.74 52.02C6.74 50.66 7.05333 49.44 7.68 48.36C8.32 47.28 9.18 46.44 10.26 45.84C11.3533 45.2267 12.5467 44.92 13.84 44.92C15.32 44.92 16.6333 45.2867 17.78 46.02C18.94 46.74 19.78 47.7667 20.3 49.1H17.56C17.2 48.3667 16.7 47.82 16.06 47.46C15.42 47.1 14.68 46.92 13.84 46.92C12.92 46.92 12.1 47.1267 11.38 47.54C10.66 47.9533 10.0933 48.5467 9.68 49.32C9.28 50.0933 9.08 50.9933 9.08 52.02C9.08 53.0467 9.28 53.9467 9.68 54.72C10.0933 55.4933 10.66 56.0933 11.38 56.52C12.1 56.9333 12.92 57.14 13.84 57.14C14.68 57.14 15.42 56.96 16.06 56.6C16.7 56.24 17.2 55.6933 17.56 54.96H20.3C19.78 56.2933 18.94 57.32 17.78 58.04C16.6333 58.76 15.32 59.12 13.84 59.12C12.5333 59.12 11.34 58.82 10.26 58.22C9.18 57.6067 8.32 56.76 7.68 55.68C7.05333 54.6 6.74 53.38 6.74 52.02ZM31.3488 56.16H25.5288L24.5288 59H22.1488L27.1288 45.08H29.7688L34.7488 59H32.3488L31.3488 56.16ZM30.7088 54.3L28.4488 47.84L26.1688 54.3H30.7088ZM48.3341 59H46.0541L39.1941 48.62V59H36.9141V45.08H39.1941L46.0541 55.44V45.08H48.3341V59ZM62.7481 59H60.4681L53.6081 48.62V59H51.3281V45.08H53.6081L60.4681 55.44V45.08H62.7481V59ZM72.0822 59.14C70.7889 59.14 69.5955 58.84 68.5022 58.24C67.4222 57.6267 66.5622 56.78 65.9222 55.7C65.2955 54.6067 64.9822 53.38 64.9822 52.02C64.9822 50.66 65.2955 49.44 65.9222 48.36C66.5622 47.28 67.4222 46.44 68.5022 45.84C69.5955 45.2267 70.7889 44.92 72.0822 44.92C73.3889 44.92 74.5822 45.2267 75.6622 45.84C76.7555 46.44 77.6155 47.28 78.2422 48.36C78.8689 49.44 79.1822 50.66 79.1822 52.02C79.1822 53.38 78.8689 54.6067 78.2422 55.7C77.6155 56.78 76.7555 57.6267 75.6622 58.24C74.5822 58.84 73.3889 59.14 72.0822 59.14ZM72.0822 57.16C73.0022 57.16 73.8222 56.9533 74.5422 56.54C75.2622 56.1133 75.8222 55.5133 76.2222 54.74C76.6355 53.9533 76.8422 53.0467 76.8422 52.02C76.8422 50.9933 76.6355 50.0933 76.2222 49.32C75.8222 48.5467 75.2622 47.9533 74.5422 47.54C73.8222 47.1267 73.0022 46.92 72.0822 46.92C71.1622 46.92 70.3422 47.1267 69.6222 47.54C68.9022 47.9533 68.3355 48.5467 67.9222 49.32C67.5222 50.0933 67.3222 50.9933 67.3222 52.02C67.3222 53.0467 67.5222 53.9533 67.9222 54.74C68.3355 55.5133 68.9022 56.1133 69.6222 56.54C70.3422 56.9533 71.1622 57.16 72.0822 57.16ZM92.8458 59H90.5658L83.7058 48.62V59H81.4258V45.08H83.7058L90.5658 55.44V45.08H92.8458V59Z" fill="white"/>
</svg>
