<svg width="100" height="100" viewBox="0 0 100 100" fill="none" xmlns="http://www.w3.org/2000/svg">
<rect width="100" height="100" fill="#0057FF"/>
<path d="M31.48 45.1V46.96H27.78V59H25.5V46.96H21.78V45.1H31.48ZM42.1691 56.16H36.3491L35.3491 59H32.9691L37.9491 45.08H40.5891L45.5691 59H43.1691L42.1691 56.16ZM41.5291 54.3L39.2691 47.84L36.9891 54.3H41.5291ZM59.1544 59H56.8744L50.0144 48.62V59H47.7344V45.08H50.0144L56.8744 55.44V45.08H59.1544V59ZM69.8084 59L64.4284 52.78V59H62.1484V45.1H64.4284V51.44L69.8284 45.1H72.6884L66.6484 52.06L72.7884 59H69.8084Z" fill="white"/>
</svg>
